<?xml version="1.0" encoding="iso-8859-1"?>
<!-- Uploaded to: SVG Repo, www.svgrepo.com, Generator: SVG Repo Mixer Tools -->
<svg fill="#000000" height="800px" width="800px" version="1.1" id="Capa_1" xmlns="http://www.w3.org/2000/svg" xmlns:xlink="http://www.w3.org/1999/xlink" 
	 viewBox="0 0 612 612" xml:space="preserve">
<g>
	<g>
		<path d="M547.87,90.023H388.865c-4.852-30.589-31.407-54.049-63.339-54.049H138.28c-35.359,0-64.127,28.769-64.127,64.129v15.468
			H64.13C28.769,115.572,0,144.339,0,179.699v378.004c0,10.121,8.204,18.322,18.322,18.322h501.203
			c10.121,0,18.322-8.201,18.322-18.322V496.43h55.83c10.121,0,18.322-8.204,18.322-18.322V154.154
			C612,118.792,583.231,90.023,547.87,90.023z M314.711,169.622c-4.849-30.59-31.404-54.05-63.339-54.05H110.797v-15.468
			c0-15.155,12.331-27.485,27.483-27.485h187.244c15.158,0,27.486,12.329,27.486,27.485v8.242c0,10.12,8.204,18.322,18.322,18.322
			H547.87c15.159,0,27.486,12.329,27.486,27.486v305.632h-37.508V233.752c0-35.362-28.769-64.13-64.13-64.13L314.711,169.622
			L314.711,169.622z M501.203,539.381H36.644V179.698c0-15.154,12.331-27.483,27.486-27.483h187.241
			c15.158,0,27.486,12.329,27.486,27.483v8.245c0,10.12,8.204,18.322,18.322,18.322h176.538c15.158,0,27.486,12.329,27.486,27.486
			L501.203,539.381L501.203,539.381z"/>
	</g>
</g>
</svg>