<svg xmlns="http://www.w3.org/2000/svg" xmlns:xlink="http://www.w3.org/1999/xlink" version="1.1" x="0px" y="0px" viewBox="0 0 100 125" style="enable-background:new 0 0 100 100;" xml:space="preserve"><path d="M38.944,92.681c0,0.761-0.614,1.375-1.375,1.375H19.153c-0.631,3.111-3.381,5.444-6.678,5.444  c-3.764,0-6.819-3.049-6.819-6.819c0-3.764,3.054-6.819,6.819-6.819c3.297,0,6.047,2.339,6.678,5.449h18.416  C38.329,91.312,38.944,91.926,38.944,92.681z M47.222,66.99c0-0.755-0.614-1.369-1.375-1.369h-4.373  c-3.156,0-6.018-1.291-8.103-3.37c-2.079-2.079-3.37-4.948-3.37-8.103c0-3.156,1.29-6.024,3.37-8.103  c2.085-2.079,4.948-3.37,8.103-3.37h15.508c0.637,3.111,3.387,5.444,6.678,5.444c3.77,0,6.819-3.049,6.819-6.819  c0-3.294-2.334-6.044-5.444-6.68V1.875c0-0.761-0.614-1.375-1.375-1.375c-0.755,0-1.369,0.614-1.369,1.375v2.632H37.495  l10.166,10.166l-9.788,9.788H62.29V34.62c-2.662,0.544-4.762,2.643-5.308,5.31H41.474c-3.911,0-7.467,1.6-10.042,4.176  c-2.575,2.575-4.176,6.131-4.176,10.042s1.6,7.467,4.176,10.042c2.575,2.575,6.131,4.176,10.042,4.176h4.373  C46.608,68.365,47.222,67.751,47.222,66.99z M70.681,91.312h-8.278c-0.755,0-1.369,0.614-1.369,1.369  c0,0.761,0.614,1.375,1.369,1.375h8.278c0.761,0,1.375-0.614,1.375-1.375C72.056,91.926,71.442,91.312,70.681,91.312z   M62.403,65.621h-8.278c-0.755,0-1.369,0.614-1.369,1.369c0,0.761,0.614,1.375,1.369,1.375h8.278c0.761,0,1.375-0.614,1.375-1.375  C63.778,66.235,63.164,65.621,62.403,65.621z M92.974,69.797c-2.575-2.575-6.131-4.176-10.042-4.176H70.681  c-0.755,0-1.369,0.614-1.369,1.369c0,0.761,0.614,1.375,1.369,1.375h12.251c3.15,0,6.018,1.29,8.098,3.37  c2.085,2.079,3.376,4.948,3.376,8.103s-1.29,6.024-3.376,8.103c-2.079,2.079-4.948,3.37-8.098,3.37H78.96  c-0.755,0-1.369,0.614-1.369,1.369c0,0.761,0.614,1.375,1.369,1.375h3.973c3.911,0,7.467-1.6,10.042-4.176  c2.575-2.575,4.176-6.131,4.176-10.042S95.55,72.372,92.974,69.797z M54.125,91.312h-8.278c-0.755,0-1.369,0.614-1.369,1.369  c0,0.761,0.614,1.375,1.369,1.375h8.278c0.761,0,1.375-0.614,1.375-1.375C55.5,91.926,54.886,91.312,54.125,91.312z M6.823,70.895  l-2.767-4.891c-0.795-1.431-1.206-3.032-1.206-4.672c0-5.314,4.311-9.625,9.625-9.625s9.625,4.311,9.625,9.625  c0,1.696-0.44,3.285-1.206,4.672l-2.767,4.891l-5.652,9.783L6.823,70.895z M8.029,61.361c0,2.451,1.995,4.446,4.446,4.446  c2.451,0,4.446-1.995,4.446-4.446c0-2.446-1.995-4.446-4.446-4.446C10.024,56.914,8.029,58.915,8.029,61.361z"/></svg>